HIERARCHY
ROOT hips_JNT
{
	OFFSET 0.000000 0.000000 0.000000
	CHANNELS 6 Xposition Yposition Zposition Zrotation Xrotation Yrotation
	JOINT spine_JNT
	{
		OFFSET -0.000424 -2.543419 9.319810
		CHANNELS 6 Xposition Yposition Zposition Zrotation Xrotation Yrotation
		JOINT spine1_JNT
		{
			OFFSET 0.000000 0.000046 10.873099
			CHANNELS 6 Xposition Yposition Zposition Zrotation Xrotation Yrotation
			JOINT spine2_JNT
			{
				OFFSET 0.000000 5.951161 12.426399
				CHANNELS 6 Xposition Yposition Zposition Zrotation Xrotation Yrotation
				JOINT neck_JNT
				{
					OFFSET 0.000000 1.460481 13.979698
					CHANNELS 6 Xposition Yposition Zposition Zrotation Xrotation Yrotation
					JOINT head_JNT
					{
						OFFSET 0.000000 -2.091499 5.870201
						CHANNELS 6 Xposition Yposition Zposition Zrotation Xrotation Yrotation
						End Site
						{
							OFFSET 0.000000 0.000000 0.099998
						}
					}
				}
				JOINT l_shoulder_JNT
				{
					OFFSET 4.399140 1.485011 12.861000
					CHANNELS 6 Xposition Yposition Zposition Zrotation Xrotation Yrotation
					JOINT l_arm_JNT
					{
						OFFSET 8.757349 0.049052 -2.311981
						CHANNELS 6 Xposition Yposition Zposition Zrotation Xrotation Yrotation
						JOINT l_forearm_JNT
						{
							OFFSET 26.900103 -0.000013 -0.000046
							CHANNELS 6 Xposition Yposition Zposition Zrotation Xrotation Yrotation
							JOINT l_hand_JNT
							{
								OFFSET 23.014801 0.000004 -0.000046
								CHANNELS 6 Xposition Yposition Zposition Zrotation Xrotation Yrotation
								JOINT l_handThumb1_JNT
								{
									OFFSET 3.629997 -2.130000 -0.779999
									CHANNELS 6 Xposition Yposition Zposition Zrotation Xrotation Yrotation
									JOINT l_handThumb2_JNT
									{
										OFFSET 3.551140 -2.240060 -2.118370
										CHANNELS 6 Xposition Yposition Zposition Zrotation Xrotation Yrotation
										JOINT l_handThumb3_JNT
										{
											OFFSET 2.159111 -0.963467 -1.116310
											CHANNELS 6 Xposition Yposition Zposition Zrotation Xrotation Yrotation
											End Site
											{
												OFFSET 0.000000 0.000000 0.099998
											}
										}
									}
								}
								JOINT l_handIndex1_JNT
								{
									OFFSET 10.514900 -2.197570 -0.041019
									CHANNELS 6 Xposition Yposition Zposition Zrotation Xrotation Yrotation
									JOINT l_handIndex2_JNT
									{
										OFFSET 2.751831 0.139054 -0.102867
										CHANNELS 6 Xposition Yposition Zposition Zrotation Xrotation Yrotation
										JOINT l_handIndex3_JNT
										{
											OFFSET 2.353012 0.090487 -0.073399
											CHANNELS 6 Xposition Yposition Zposition Zrotation Xrotation Yrotation
											End Site
											{
												OFFSET 0.000000 0.000000 0.099998
											}
										}
									}
								}
								JOINT l_handMiddle1_JNT
								{
									OFFSET 10.067101 -0.059573 0.139202
									CHANNELS 6 Xposition Yposition Zposition Zrotation Xrotation Yrotation
									JOINT l_handMiddle2_JNT
									{
										OFFSET 3.909027 0.119066 -0.288403
										CHANNELS 6 Xposition Yposition Zposition Zrotation Xrotation Yrotation
										JOINT l_handMiddle3_JNT
										{
											OFFSET 2.328400 0.059440 -0.019108
											CHANNELS 6 Xposition Yposition Zposition Zrotation Xrotation Yrotation
											End Site
											{
												OFFSET 0.000000 0.000000 0.099998
											}
										}
									}
								}
								JOINT l_handRing1_JNT
								{
									OFFSET 9.468109 1.809830 0.132240
									CHANNELS 6 Xposition Yposition Zposition Zrotation Xrotation Yrotation
									JOINT l_handRing2_JNT
									{
										OFFSET 3.281532 0.033937 -0.224052
										CHANNELS 6 Xposition Yposition Zposition Zrotation Xrotation Yrotation
										JOINT l_handRing3_JNT
										{
											OFFSET 2.245003 0.008389 -0.070213
											CHANNELS 6 Xposition Yposition Zposition Zrotation Xrotation Yrotation
											End Site
											{
												OFFSET 0.000000 0.000000 0.099998
											}
										}
									}
								}
								JOINT l_handPinky1_JNT
								{
									OFFSET 8.490768 3.584150 -0.077770
									CHANNELS 6 Xposition Yposition Zposition Zrotation Xrotation Yrotation
									JOINT l_handPinky2_JNT
									{
										OFFSET 2.532173 0.017040 -0.073074
										CHANNELS 6 Xposition Yposition Zposition Zrotation Xrotation Yrotation
										JOINT l_handPinky3_JNT
										{
											OFFSET 1.951210 -0.017009 0.025116
											CHANNELS 6 Xposition Yposition Zposition Zrotation Xrotation Yrotation
											End Site
											{
												OFFSET 0.000000 0.000000 0.099998
											}
										}
									}
								}
							}
						}
					}
				}
				JOINT r_shoulder_JNT
				{
					OFFSET -4.397820 1.485011 12.860600
					CHANNELS 6 Xposition Yposition Zposition Zrotation Xrotation Yrotation
					JOINT r_arm_JNT
					{
						OFFSET -8.757320 0.049050 -2.312000
						CHANNELS 6 Xposition Yposition Zposition Zrotation Xrotation Yrotation
						JOINT r_forearm_JNT
						{
							OFFSET -26.900000 -0.000010 0.000000
							CHANNELS 6 Xposition Yposition Zposition Zrotation Xrotation Yrotation
							JOINT r_hand_JNT
							{
								OFFSET -23.014900 0.000000 0.000000
								CHANNELS 6 Xposition Yposition Zposition Zrotation Xrotation Yrotation
								JOINT r_handThumb1_JNT
								{
									OFFSET -3.629997 -2.130000 -0.779999
									CHANNELS 6 Xposition Yposition Zposition Zrotation Xrotation Yrotation
									JOINT r_handThumb2_JNT
									{
										OFFSET -3.551201 -2.240060 -2.118000
										CHANNELS 6 Xposition Yposition Zposition Zrotation Xrotation Yrotation
										JOINT r_handThumb3_JNT
										{
											OFFSET -2.159103 -0.963467 -1.116001
											CHANNELS 6 Xposition Yposition Zposition Zrotation Xrotation Yrotation
											End Site
											{
												OFFSET 0.000000 0.000000 0.099998
											}
										}
									}
								}
								JOINT r_handIndex1_JNT
								{
									OFFSET -10.514900 -2.197560 -0.040997
									CHANNELS 6 Xposition Yposition Zposition Zrotation Xrotation Yrotation
									JOINT r_handIndex2_JNT
									{
										OFFSET -2.751801 0.139050 -0.102997
										CHANNELS 6 Xposition Yposition Zposition Zrotation Xrotation Yrotation
										JOINT r_handIndex3_JNT
										{
											OFFSET -2.352997 0.090490 -0.073006
											CHANNELS 6 Xposition Yposition Zposition Zrotation Xrotation Yrotation
											End Site
											{
												OFFSET 0.000000 0.000000 0.099998
											}
										}
									}
								}
								JOINT r_handMiddle1_JNT
								{
									OFFSET -10.067101 -0.059570 0.139999
									CHANNELS 6 Xposition Yposition Zposition Zrotation Xrotation Yrotation
									JOINT r_handMiddle2_JNT
									{
										OFFSET -3.909103 0.119070 -0.288998
										CHANNELS 6 Xposition Yposition Zposition Zrotation Xrotation Yrotation
										JOINT r_handMiddle3_JNT
										{
											OFFSET -2.328400 0.059440 -0.019001
											CHANNELS 6 Xposition Yposition Zposition Zrotation Xrotation Yrotation
											End Site
											{
												OFFSET 0.000000 0.000000 0.099998
											}
										}
									}
								}
								JOINT r_handRing1_JNT
								{
									OFFSET -9.468102 1.809830 0.133003
									CHANNELS 6 Xposition Yposition Zposition Zrotation Xrotation Yrotation
									JOINT r_handRing2_JNT
									{
										OFFSET -3.281601 0.033939 -0.224995
										CHANNELS 6 Xposition Yposition Zposition Zrotation Xrotation Yrotation
										JOINT r_handRing3_JNT
										{
											OFFSET -2.245003 0.008390 -0.070000
											CHANNELS 6 Xposition Yposition Zposition Zrotation Xrotation Yrotation
											End Site
											{
												OFFSET 0.000000 0.000000 0.099998
											}
										}
									}
								}
								JOINT r_handPinky1_JNT
								{
									OFFSET -8.490799 3.584149 -0.076996
									CHANNELS 6 Xposition Yposition Zposition Zrotation Xrotation Yrotation
									JOINT r_handPinky2_JNT
									{
										OFFSET -2.532204 0.017040 -0.074005
										CHANNELS 6 Xposition Yposition Zposition Zrotation Xrotation Yrotation
										JOINT r_handPinky3_JNT
										{
											OFFSET -1.951202 -0.017010 0.026001
											CHANNELS 6 Xposition Yposition Zposition Zrotation Xrotation Yrotation
											End Site
											{
												OFFSET 0.000000 0.000000 0.099998
											}
										}
									}
								}
							}
						}
					}
				}
			}
		}
	}
	JOINT l_upleg_JNT
	{
		OFFSET 10.061400 0.706233 -5.185750
		CHANNELS 6 Xposition Yposition Zposition Zrotation Xrotation Yrotation
		JOINT l_leg_JNT
		{
			OFFSET -0.348572 0.819165 -45.582401
			CHANNELS 6 Xposition Yposition Zposition Zrotation Xrotation Yrotation
			JOINT l_foot_JNT
			{
				OFFSET 0.349145 1.708487 -42.332497
				CHANNELS 6 Xposition Yposition Zposition Zrotation Xrotation Yrotation
				JOINT l_toebase_JNT
				{
					OFFSET 0.070271 -12.888700 -8.126663
					CHANNELS 6 Xposition Yposition Zposition Zrotation Xrotation Yrotation
					End Site
					{
						OFFSET 0.000000 0.000000 0.099998
					}
				}
			}
		}
	}
	JOINT r_upleg_JNT
	{
		OFFSET -10.061000 0.706233 -5.185770
		CHANNELS 6 Xposition Yposition Zposition Zrotation Xrotation Yrotation
		JOINT r_leg_JNT
		{
			OFFSET 0.348580 0.819162 -45.582405
			CHANNELS 6 Xposition Yposition Zposition Zrotation Xrotation Yrotation
			JOINT r_foot_JNT
			{
				OFFSET -0.349180 1.708487 -42.332504
				CHANNELS 6 Xposition Yposition Zposition Zrotation Xrotation Yrotation
				JOINT r_toebase_JNT
				{
					OFFSET -0.070200 -12.888700 -8.126663
					CHANNELS 6 Xposition Yposition Zposition Zrotation Xrotation Yrotation
					End Site
					{
						OFFSET 0.000000 0.000000 0.099998
					}
				}
			}
		}
	}
}
MOTION
Frames: 4
Frame Time: 0.041667
12.240000 4.898670 93.984436 19.392893 5.068210 0.622396 -0.000421 -2.543413 9.319811 -0.001829 -0.015871 -6.587262 -0.000001 0.000047 10.873107 0.055956 0.000002 -0.000000 0.000002 5.951159 12.426404 11.766498 -0.129546 -1.998854 -0.000000 1.460484 13.979696 -3.398705 -2.725221 -4.470800 -0.000001 -2.091506 5.870198 1.476176 14.527141 -7.181199 4.399139 1.485014 12.861015 0.000000 -0.000000 -0.000003 8.757338 0.049052 -2.312000 -50.616995 -34.515224 12.047982 26.900114 -0.000010 -0.000033 -84.730191 1.704343 -1.868725 23.014801 0.000008 -0.000044 0.055951 0.000028 -0.000003 3.629981 -2.129995 -0.780005 -22.207704 20.704832 4.106614 3.551139 -2.240058 -2.118366 0.000005 -0.000003 0.000003 2.159104 -0.963478 -1.116328 0.737018 0.047600 7.404160 10.514895 -2.197567 -0.041030 -0.347922 3.469718 11.655425 2.751838 0.139056 -0.102830 -0.586429 4.438809 14.998141 2.353007 0.090488 -0.073389 -0.255283 2.979298 9.987219 10.067087 -0.059568 0.139187 -0.323699 2.698250 13.630853 3.909021 0.119072 -0.288411 -0.532957 3.447764 17.533763 2.328402 0.059441 -0.019109 -0.237086 2.318862 11.681305 9.468103 1.809835 0.132235 0.210138 -1.535787 15.552913 3.281518 0.033937 -0.224077 0.350187 -1.957106 19.999873 2.245005 0.008385 -0.070218 0.160487 -1.319334 13.330355 8.490758 3.584154 -0.077776 0.500833 -3.355847 17.045381 2.532179 0.017048 -0.073077 0.828234 -4.272051 21.931811 1.951233 -0.017010 0.025095 0.373170 -2.886418 14.606170 -4.397821 1.485013 12.860603 -0.000001 -0.000001 0.000001 -8.757316 0.049047 -2.312007 109.230571 -39.580304 -13.090833 -26.900002 0.000003 0.000011 38.963180 5.153363 14.499402 -23.014923 0.000006 0.000006 -0.000001 -0.000003 -0.000001 -3.629988 -2.129999 -0.779992 22.207704 20.704822 -4.106615 -3.551192 -2.240061 -2.118005 -0.000003 -0.000010 -0.000001 -2.159087 -0.963448 -1.116011 0.745460 -0.048701 -7.480468 -10.514880 -2.197559 -0.040981 0.356105 3.504803 -11.775978 -2.751811 0.139056 -0.103004 0.596064 4.484154 -15.153149 -2.352994 0.090489 -0.073005 0.263087 3.009261 -10.090469 -10.067091 -0.059563 0.140001 0.329804 2.725657 -13.771532 -3.909107 0.119072 -0.289001 0.541850 3.482823 -17.714840 -2.328395 0.059438 -0.018979 0.253341 2.340063 -11.802264 -9.468092 1.809827 0.133014 -0.218625 -1.550056 -15.713422 -3.281608 0.033950 -0.225004 -0.355397 -1.977130 -20.206100 -2.244996 0.008398 -0.069987 -0.161713 -1.333158 -13.467805 -8.490786 3.584150 -0.076974 -0.513750 -3.388604 -17.221624 -2.532204 0.017043 -0.074024 -0.846213 -4.313476 -22.158780 -1.951195 -0.017006 0.026007 -0.380027 -2.915723 -14.756926 10.061401 0.706239 -5.185744 -16.775412 -17.287591 -24.562448 -0.348572 0.819162 -45.582382 0.262633 25.735676 0.348835 0.349138 1.708496 -42.332504 -2.149924 -6.816901 14.364475 0.070271 -12.888701 -8.126666 -0.714346 -6.165130 -0.038350 -10.060997 0.706240 -5.185767 33.501822 -52.474895 41.488881 0.348585 0.819169 -45.582390 -106.533261 86.625677 109.740690 -0.349180 1.708488 -42.332504 0.055952 0.000003 0.000002 -0.070198 -12.888700 -8.126657 -0.000001 0.000003 -0.000001 
12.339600 5.086441 93.975830 19.630647 5.040730 0.945241 -0.000425 -2.543425 9.319818 -0.001695 -0.014347 -6.740943 0.000000 0.000047 10.873105 0.000000 0.000000 -0.000000 0.000001 5.951154 12.426394 11.879928 -0.132985 -1.907786 -0.000002 1.460484 13.979681 -3.108513 -3.639237 -4.069939 0.000002 -2.091500 5.870194 1.409775 14.340489 -6.935041 4.399139 1.485013 12.861008 0.000004 0.000000 -0.000003 8.757345 0.049054 -2.311991 -51.429012 -34.578287 10.805632 26.900108 -0.000014 -0.000031 -84.158797 1.797361 -1.990553 23.014807 0.000007 -0.000051 0.055952 -0.000013 0.000007 3.629996 -2.129991 -0.779993 -22.207698 20.704834 4.106610 3.551141 -2.240048 -2.118372 0.000003 -0.000002 0.000002 2.159122 -0.963478 -1.116309 0.725238 0.046088 7.285062 10.514915 -2.197565 -0.040992 -0.340818 3.413812 11.467782 2.751846 0.139047 -0.102848 -0.566973 4.369222 14.755772 2.353007 0.090487 -0.073415 -0.247677 2.931722 9.826307 10.067117 -0.059567 0.139205 -0.310649 2.656308 13.411126 3.909033 0.119060 -0.288416 -0.515710 3.394125 17.251041 2.328394 0.059438 -0.019130 -0.225381 2.282915 11.492938 9.468131 1.809833 0.132266 0.208192 -1.510390 15.302742 3.281525 0.033938 -0.224052 0.333349 -1.929001 19.677667 2.244997 0.008395 -0.070194 0.161508 -1.297110 13.115984 8.490774 3.584153 -0.077765 0.486205 -3.303027 16.770654 2.532172 0.017046 -0.073109 0.802737 -4.206372 21.577763 1.951219 -0.017017 0.025120 0.360507 -2.841205 14.370817 -4.397823 1.485012 12.860600 0.000002 -0.000000 0.000001 -8.757321 0.049051 -2.312002 109.916957 -39.593142 -12.690973 -26.900003 0.000007 -0.000022 38.434178 5.253733 14.996512 -23.014910 0.000003 0.000013 0.000002 0.000005 0.000004 -3.629997 -2.129976 -0.780005 22.207711 20.704819 -4.106609 -3.551203 -2.240069 -2.117989 -0.000006 -0.000001 0.000003 -2.159097 -0.963466 -1.116000 0.742310 -0.048293 -7.450240 -10.514902 -2.197551 -0.040997 0.363119 3.488782 -11.728881 -2.751791 0.139059 -0.103000 0.592999 4.465987 -15.091784 -2.352988 0.090490 -0.073016 0.258839 2.997598 -10.049559 -10.067115 -0.059555 0.139999 0.331613 2.713778 -13.716045 -3.909093 0.119088 -0.289007 0.537482 3.469207 -17.643041 -2.328387 0.059442 -0.018993 0.236562 2.333827 -11.753959 -9.468112 1.809841 0.133005 -0.215254 -1.544409 -15.649878 -3.281610 0.033940 -0.224987 -0.352050 -1.969674 -20.124382 -2.244991 0.008371 -0.070010 -0.164272 -1.326963 -13.413395 -8.490798 3.584156 -0.076979 -0.505701 -3.376535 -17.151688 -2.532205 0.017056 -0.074011 -0.838379 -4.297353 -22.068799 -1.951197 -0.017012 0.026007 -0.376082 -2.904440 -14.697175 10.061400 0.706227 -5.185750 -18.040034 -19.404521 -24.827611 -0.348571 0.819161 -45.582394 0.353667 29.824748 0.284270 0.349144 1.708494 -42.332493 -2.029695 -5.647329 10.552247 0.070274 -12.888705 -8.126674 -1.158206 -8.714681 -0.088042 -10.061003 0.706226 -5.185775 34.762787 -53.148386 41.983267 0.348582 0.819165 -45.582390 -129.713202 86.310942 132.493895 -0.349177 1.708487 -42.332497 0.000000 0.000002 -0.000004 -0.070199 -12.888700 -8.126647 0.000001 -0.000003 0.000001 
12.345901 5.047085 93.967438 19.830302 5.062704 1.251914 -0.000424 -2.543431 9.319802 0.037658 -0.018162 -6.904885 0.000002 0.000047 10.873103 -0.000001 0.000002 0.000001 0.000004 5.951162 12.426408 12.101369 -0.137143 -1.805410 0.000000 1.460482 13.979705 -2.811038 -4.392805 -3.668941 -0.000001 -2.091499 5.870212 1.405252 14.058715 -6.984300 4.399138 1.485010 12.861004 0.000001 0.000000 -0.000003 8.757353 0.049054 -2.311966 -52.318112 -34.653474 9.548253 26.900106 -0.000015 -0.000029 -83.555596 1.871791 -2.095060 23.014797 0.000008 -0.000056 -0.000002 -0.000011 0.000008 3.630010 -2.130003 -0.779988 -22.207699 20.704839 4.106609 3.551141 -2.240060 -2.118376 0.000005 0.000003 0.000005 2.159128 -0.963469 -1.116296 0.714362 0.044705 7.170801 10.514915 -2.197575 -0.041003 -0.331036 3.360794 11.287532 2.751832 0.139054 -0.102863 -0.550131 4.301998 14.523525 2.353004 0.090486 -0.073400 -0.250885 2.884301 9.672500 10.067110 -0.059579 0.139197 -0.298902 2.615889 13.200433 3.909027 0.119067 -0.288401 -0.500818 3.342152 16.979903 2.328401 0.059436 -0.019114 -0.217914 2.247649 11.312526 9.468122 1.809827 0.132244 0.192051 -1.489901 15.062381 3.281525 0.033936 -0.224039 0.326786 -1.898594 19.368996 2.245010 0.008388 -0.070210 0.146907 -1.279398 12.909956 8.490777 3.584147 -0.077769 0.475531 -3.251380 16.507305 2.532177 0.017046 -0.073104 0.778090 -4.143448 21.238164 1.951200 -0.017006 0.025136 0.351666 -2.796991 14.145125 -4.397822 1.485010 12.860603 0.000001 0.000001 0.000000 -8.757310 0.049053 -2.311999 110.707067 -39.562092 -12.238163 -26.899996 0.000022 -0.000021 37.761281 5.360690 15.589114 -23.014910 -0.000002 -0.000005 0.000000 0.000016 -0.000009 -3.630002 -2.129990 -0.780010 22.207710 20.704817 -4.106612 -3.551201 -2.240060 -2.118007 -0.000009 -0.000004 -0.000003 -2.159100 -0.963461 -1.115996 0.738091 -0.047738 -7.418216 -10.514890 -2.197559 -0.041003 0.352719 3.475497 -11.677834 -2.751827 0.139050 -0.103002 0.585608 4.447851 -15.026503 -2.352987 0.090489 -0.073020 0.260169 2.984199 -10.006447 -10.067088 -0.059567 0.139980 0.323749 2.703562 -13.656702 -3.909117 0.119058 -0.289000 0.532681 3.454836 -17.567026 -2.328387 0.059443 -0.019006 0.238867 2.323030 -11.703536 -9.468106 1.809835 0.132988 -0.208129 -1.539418 -15.582438 -3.281609 0.033949 -0.224994 -0.352705 -1.960224 -20.037905 -2.244995 0.008380 -0.070017 -0.156582 -1.322871 -13.355544 -8.490798 3.584144 -0.076997 -0.503080 -3.361926 -17.077896 -2.532200 0.017042 -0.074002 -0.828989 -4.280710 -21.973429 -1.951200 -0.016998 0.026000 -0.378006 -2.890896 -14.634138 10.061402 0.706222 -5.185755 -19.136508 -20.982619 -25.092291 -0.348572 0.819170 -45.582397 0.408896 32.934277 0.236570 0.349143 1.708493 -42.332497 -1.651515 -4.139306 6.795633 0.070271 -12.888701 -8.126671 -1.768920 -11.189304 -0.173092 -10.060999 0.706221 -5.185779 35.868206 -53.562296 42.582107 0.348587 0.819175 -45.582390 -143.839891 85.833519 146.227820 -0.349178 1.708491 -42.332493 -0.000003 0.000027 0.000006 -0.070199 -12.888700 -8.126663 0.000000 0.000001 0.000004 
12.279700 4.772934 93.971237 19.995596 5.136531 1.523590 -0.000425 -2.543419 9.319805 0.037741 -0.017188 -7.067252 -0.000000 0.000045 10.873101 0.000000 0.000003 0.000001 0.000001 5.951165 12.426395 12.430693 -0.142948 -1.694629 0.000003 1.460482 13.979707 -2.507889 -4.984915 -3.262594 0.000004 -2.091496 5.870196 1.450076 13.706149 -7.316076 4.399139 1.485011 12.860992 -0.000002 0.000001 -0.000001 8.757346 0.049054 -2.311992 -53.250658 -34.752395 8.334862 26.900110 -0.000010 -0.000065 -82.953802 1.915422 -2.166665 23.014797 0.000007 -0.000057 -0.000002 -0.000001 0.000003 3.630000 -2.129993 -0.779997 -22.207703 20.704837 4.106614 3.551146 -2.240042 -2.118374 0.000003 0.000005 -0.000000 2.159106 -0.963476 -1.116315 0.705533 0.043604 7.066638 10.514915 -2.197565 -0.041013 -0.321438 3.312596 11.123234 2.751831 0.139055 -0.102867 -0.534558 4.240764 14.311843 2.353018 0.090484 -0.073389 -0.240184 2.843403 9.531561 10.067101 -0.059571 0.139193 -0.297055 2.576963 13.008747 3.909026 0.119064 -0.288380 -0.486563 3.294981 16.732700 2.328398 0.059437 -0.019096 -0.205223 2.216643 11.147787 9.468120 1.809835 0.132242 0.188596 -1.468173 14.843541 3.281525 0.033934 -0.224043 0.311067 -1.874280 19.087179 2.245006 0.008386 -0.070221 0.133442 -1.263227 12.722149 8.490780 3.584151 -0.077769 0.455457 -3.207333 16.266640 2.532180 0.017039 -0.073062 0.756152 -4.085881 20.928588 1.951221 -0.017013 0.025126 0.341008 -2.757339 13.939286 -4.397821 1.485011 12.860596 -0.000002 0.000001 0.000001 -8.757325 0.049052 -2.312014 111.572001 -39.498031 -11.747983 -26.899994 -0.000011 0.000002 36.953178 5.469422 16.270817 -23.014904 0.000005 0.000004 0.000001 -0.000007 0.000000 -3.629996 -2.130001 -0.780009 22.207706 20.704819 -4.106616 -3.551200 -2.240058 -2.117996 -0.000004 -0.000005 -0.000003 -2.159110 -0.963465 -1.116000 0.738063 -0.047732 -7.384803 -10.514889 -2.197553 -0.041011 0.348556 3.460266 -11.625079 -2.751813 0.139067 -0.103010 0.581736 4.427905 -14.958609 -2.352990 0.090502 -0.073018 0.261460 2.970256 -9.961455 -10.067087 -0.059566 0.139980 0.320385 2.691724 -13.595083 -3.909098 0.119075 -0.288998 0.530393 3.438983 -17.487876 -2.328398 0.059438 -0.019005 0.241196 2.311795 -11.650914 -9.468111 1.809834 0.132996 -0.211639 -1.531152 -15.512287 -3.281605 0.033951 -0.225007 -0.346724 -1.952810 -19.947506 -2.244995 0.008396 -0.069988 -0.144215 -1.319599 -13.295195 -8.490793 3.584146 -0.077003 -0.500204 -3.346729 -17.000884 -2.532189 0.017038 -0.074006 -0.825270 -4.260914 -21.874408 -1.951196 -0.017003 0.026011 -0.369385 -2.879525 -14.567868 10.061400 0.706232 -5.185743 -20.068575 -22.133920 -25.317703 -0.348566 0.819155 -45.582397 0.409883 35.295696 0.222474 0.349150 1.708493 -42.332497 -1.041189 -2.424658 3.065965 0.070270 -12.888705 -8.126665 -2.550030 -13.584100 -0.303647 -10.061002 0.706232 -5.185767 36.808163 -53.642844 43.293376 0.348588 0.819170 -45.582394 -151.353126 85.554082 153.415351 -0.349185 1.708489 -42.332504 0.000003 0.000007 -0.000012 -0.070196 -12.888700 -8.126654 -0.000001 -0.000005 0.000005 
